<?xml version="1.0" encoding="UTF-8"?><svg id="Layer_1" xmlns="http://www.w3.org/2000/svg" viewBox="0 0 526.87 643.76"><defs><style>.cls-1{fill:#fff;stroke:#fff;stroke-linejoin:round;stroke-width:13px;}</style></defs><path class="cls-1" d="M401.82,203.44c-22.63-11.66-47.22-17.8-71.88-18.56,0,0,0,0,0,0-12.84-42.49,54.22-48.48,54.22-48.48h0,0s-.03,0-.04,0c-1.2-.02-2.38-.02-3.55-.02-.36,0-.71,0-1.06,0-.86,0-1.71.02-2.55.04-.34,0-.68.02-1.02.03-1.12.03-2.24.08-3.32.13-.03,0-.05,0-.08,0-1.07.06-2.11.12-3.14.2-.32.02-.63.05-.94.07-.77.06-1.54.13-2.29.2-.3.03-.6.06-.89.09-1,.11-1.99.22-2.96.34-.03,0-.07,0-.1.01-.94.12-1.85.26-2.76.4-.28.04-.55.09-.83.13-.69.11-1.36.23-2.03.35-.26.05-.52.09-.78.14-.89.17-1.76.35-2.62.53-.04,0-.07.02-.11.03-.82.18-1.62.37-2.4.57-.24.06-.48.12-.72.19-.61.16-1.21.32-1.8.49-.22.06-.45.12-.67.19-.78.23-1.55.46-2.29.7-.04.01-.07.03-.11.04-.71.23-1.4.47-2.08.72-.21.08-.42.15-.63.23-.53.2-1.05.4-1.57.6-.19.08-.38.15-.57.23-.68.28-1.34.56-1.99.85-.04.02-.07.03-.11.05-.61.28-1.2.56-1.78.84-.18.09-.36.18-.53.27-.46.23-.91.47-1.36.71-.16.09-.32.17-.48.26-.58.32-1.15.64-1.71.98-.04.02-.07.04-.11.07-.52.31-1.02.63-1.51.95-.15.1-.3.2-.45.3-.39.26-.78.52-1.15.79-.13.09-.27.19-.4.28-.49.35-.97.71-1.44,1.08-.04.03-.07.06-.1.08-.43.34-.85.68-1.25,1.02-.13.11-.25.22-.38.33-.33.28-.65.57-.97.86-.11.1-.22.2-.33.3-.41.38-.81.77-1.2,1.15-.03.03-.07.07-.1.1-.35.35-.69.71-1.02,1.07-.11.11-.21.23-.31.35-.27.3-.53.6-.79.9-.09.11-.18.21-.27.32-.33.4-.66.8-.97,1.21-.03.04-.07.09-.1.13-.28.36-.54.73-.8,1.09-.09.12-.17.24-.26.37-.22.31-.42.62-.63.93-.07.11-.15.22-.22.33-.26.41-.52.82-.77,1.24-.03.05-.06.11-.09.16-.21.36-.42.73-.62,1.09-.07.13-.14.26-.21.38-.17.31-.33.62-.48.93-.06.12-.12.23-.17.35-.2.41-.4.82-.58,1.24-.03.07-.06.13-.09.2-.16.35-.31.7-.45,1.05-.06.13-.11.27-.16.4-.12.3-.24.6-.35.9-.05.12-.09.24-.14.37-.15.4-.29.81-.42,1.21-.03.08-.05.17-.08.25-.11.33-.21.65-.31.98-.04.14-.08.28-.12.42-.08.28-.16.57-.24.85-.03.13-.07.26-.1.38-.1.39-.2.78-.29,1.16-.02.09-.04.19-.06.28-.07.3-.13.6-.19.9-.03.14-.06.29-.09.43-.05.26-.1.52-.14.78-.02.13-.05.27-.07.4-.06.36-.12.72-.17,1.08-.02.12-.03.23-.05.35-.04.26-.07.51-.1.77-.02.15-.04.3-.05.45-.03.23-.05.45-.07.68-.01.14-.03.28-.04.42-.03.33-.06.66-.08.98,0,.13-.02.26-.02.39-.01.21-.03.43-.04.64,0,.15-.01.3-.02.45,0,.19-.01.38-.02.56,0,.14,0,.29-.01.43,0,.28-.01.56-.01.84,0,0,0,.01,0,.02-12.17,1.02-24.23,3.35-35.96,6.98-17.32-59.93,77.57-68.4,77.57-68.4-94.95-1.61-103.66,52.84-102.54,78.39-17.08,8.48-32.96,19.99-46.8,34.49-48.37-5.16-104.06,2.44-116.29,26.56-.75,1.47-1.25,2.7.3,2.77,28.59,1.26,48.54,14.32,75.1,43.02,0,0-5.6,18.79-5.63,35.46-2.53,49.96,17.11,100.55,57.82,135.89,21.85,18.97,47.22,31.3,73.56,37.22,12.04,37.21,43.34,52.22,76.78,54.11-13.88-15.27,7.93-38.82-21.9-59.68,34.98-20.05,18.28-54.54,32.52-75.16-32.9,2.55-61.83,11.92-78.62,42.33-13.25-23.59-41.56-62.68,9.27-109.86,0,0,10.4-11.91,41.5-26.23,0,0-6.27,2.99,1.55,24.85,1.51,4.23,7.75,13.55,1.04,25.13,30.56-13.2,40.97-35.4,32.7-65.92l-.86-2.43c.09-.04.16-.06.16-.06,60-29.57,85.44-82.62,19.94-121.4Z"/><path d="M311.47,194.79s-14.19-59.87,72.7-58.4c0,0-70.56,6.29-53.09,51.8l-19.6,6.59Z"/><path d="M401.82,203.44c-22.63-11.66-47.22-17.8-71.88-18.56-12.84-42.49,54.22-48.48,54.22-48.48-65.06-1.1-73.45,32.19-73.55,48.98-12.17,1.02-24.23,3.35-35.96,6.98-17.32-59.93,77.57-68.4,77.57-68.4-94.95-1.61-103.66,52.84-102.54,78.39-17.08,8.48-32.96,19.99-46.8,34.49-48.37-5.16-104.06,2.44-116.29,26.56-.75,1.47-1.25,2.7.3,2.77,28.59,1.26,48.54,14.32,75.1,43.02,0,0,16.82-13.53,31.51-9.01,14.68,4.52-.75,38.02-22.21,42.54l-14.92,1.93c-2.53,49.96,17.11,100.55,57.82,135.89,21.85,18.97,47.22,31.3,73.56,37.22,12.04,37.21,43.34,52.22,76.78,54.11-13.88-15.27,7.93-38.82-21.9-59.68,34.98-20.05,18.28-54.54,32.52-75.16-32.9,2.55-61.83,11.92-78.62,42.33.64,1.14,1.25,2.24,1.8,3.31-.91-.58-1.8-1.16-2.67-1.75-2.37,4.5-4.48,9.45-6.31,14.89-47.13-19.72-66.45-46.3-57.54-84.71,6.95-29.97-3.3-34.42-10.72-15.98-26.2,65.1-23.85-10.05-21.19-20.51,4.83-19.01,17.14-57.4,33.83-68.66,24.28-16.38,30.5-5.67,30.5-5.67,0,0-1.41,16.36,4.04,29.16,5.46,12.8-6.45,35.63-6.45,35.63,36.98-11.6,58.09-41.74,45.54-83.65-11.21,4.18-19.58,7.2-19.58,7.2,11.95-7.15,18.73-9.63,18.73-9.63l.1-.02s-.02-.06-.03-.09c122.34-60.4,150.11-5.12,54.14,37.49-31.1,13.8-62.31,30.36-78.9,51.98-15.38,20.1-36.69,78.26,13.82,112.59.28-.53.57-1.04.86-1.56-13.25-23.59-41.56-62.68,9.27-109.86,0,0,10.4-11.91,41.5-26.23,0,0-6.27,2.99,1.55,24.85,1.51,4.23,7.75,13.55,1.04,25.13,30.56-13.2,40.97-35.4,32.7-65.92-11.14,4.15-19.43,7.15-19.43,7.15,11.95-7.15,18.73-9.63,18.73-9.63,60-29.57,85.44-82.62,19.94-121.4ZM315.42,241.99c-11.29,11.05-32.33,5.9-35.26-3.77-1.3-4.3-10.09-16.94,26.83-28.12,17.46-5.29,36.02-3.2,35.78,7.28-.23,10.07-14.31,11.85-27.35,24.61ZM356.6,227.8c-2.93,0-5.31-2.38-5.31-5.31s2.38-5.31,5.31-5.31,5.31,2.38,5.31,5.31-2.38,5.31-5.31,5.31Z"/></svg>